<svg width="20" height="20" viewBox="0 0 20 20" fill="none" xmlns="http://www.w3.org/2000/svg">
<rect width="20" height="20" rx="3" fill="#2D312A"/>
<g clip-path="url(#clip0_1072_4639)">
<path d="M8.28236 10.6835C8.33212 9.79622 8.76591 9.01221 9.42317 8.45823C10.0663 7.91365 10.9302 7.58032 11.8785 7.58032C12.8221 7.58032 13.686 7.91318 14.3292 8.45823C14.9864 9.01221 15.4183 9.79622 15.47 10.6835C15.5197 11.5943 15.1531 12.444 14.5122 13.0731C13.855 13.7116 12.9254 14.1154 11.8785 14.1154C10.8316 14.1154 9.89734 13.7144 9.24477 13.0731C8.6016 12.444 8.23541 11.599 8.28705 10.6882L8.28236 10.6835Z" fill="#2D312A"/>
<path d="M10.2501 10.5749C10.2756 10.119 10.4986 9.71606 10.8363 9.43137C11.1668 9.15152 11.6108 8.98022 12.0981 8.98022C12.583 8.98022 13.0269 9.15127 13.3574 9.43137C13.6952 9.71606 13.9172 10.119 13.9437 10.5749C13.9693 11.043 13.7809 11.4796 13.4515 11.8029C13.1138 12.131 12.6361 12.3385 12.0981 12.3385C11.5601 12.3385 11.08 12.1325 10.7446 11.8029C10.4141 11.4796 10.2259 11.0454 10.2525 10.5773L10.2501 10.5749Z" fill="#A6A999"/>
<path d="M7.35457 11.5398C7.35771 11.7184 7.41464 12.0658 7.50005 12.336C7.67954 12.9102 7.98497 13.4409 8.40717 13.9066C8.84143 14.3867 9.37702 14.7727 9.99464 15.0477C10.6436 15.3348 11.3481 15.482 12.0791 15.482C12.8101 15.481 13.5146 15.3314 14.1635 15.0405C14.7812 14.763 15.3168 14.377 15.751 13.8945C16.1756 13.4241 16.4796 12.8933 16.6581 12.3191C16.7486 12.0296 16.8058 11.7353 16.8287 11.4409C16.8511 11.1514 16.8417 10.8595 16.8005 10.5676C16.7199 10.0006 16.523 9.46745 16.2215 8.98494C15.9464 8.53861 15.5894 8.15019 15.1648 7.82208L15.1657 7.82136L10.8955 4.54027C10.8916 4.53738 10.8885 4.53424 10.8844 4.53158C10.6045 4.31638 10.1317 4.31711 9.82528 4.53279C9.51406 4.75089 9.47787 5.11181 9.75531 5.33859L9.75411 5.33979L11.537 6.78975L6.10872 6.79553H6.10148C5.65275 6.79602 5.2209 7.08987 5.13646 7.46382C5.04864 7.84259 5.35359 8.15863 5.82163 8.15863L5.82091 8.16032L8.57123 8.15502L3.6496 11.9186C3.64333 11.9232 3.63657 11.928 3.63078 11.9326C3.16757 12.2873 3.01799 12.8783 3.30991 13.2499C3.60665 13.6286 4.23633 13.631 4.70437 13.252L7.38232 11.0566C7.38232 11.0566 7.34323 11.3534 7.34637 11.5295L7.35457 11.5398ZM14.2545 12.5314C13.702 13.0935 12.9276 13.4144 12.0928 13.4144C11.2557 13.4159 10.4813 13.1008 9.92878 12.5386C9.65857 12.2636 9.46074 11.95 9.3377 11.6146C9.21779 11.2841 9.17123 10.9343 9.20211 10.5821C9.2313 10.2371 9.33408 9.90654 9.49886 9.60979C9.66002 9.31787 9.88245 9.05249 10.1551 8.82812C10.6931 8.39145 11.3758 8.1526 12.09 8.1526C12.8065 8.15164 13.4892 8.38638 14.0272 8.82329C14.2999 9.04621 14.5218 9.31063 14.6835 9.60255C14.8482 9.8993 14.9513 10.2274 14.9802 10.5748C15.0106 10.9271 14.964 11.2769 14.8441 11.6074C14.7216 11.9452 14.5233 12.2588 14.2531 12.5338L14.2545 12.5314Z" fill="#A6A999"/>
</g>
<defs>
<clipPath id="clip0_1072_4639">
<rect width="14" height="11.4475" fill="white" transform="translate(3 4.27002)"/>
</clipPath>
</defs>
</svg>
