<svg width="20" height="20" viewBox="0 0 20 20" fill="none" xmlns="http://www.w3.org/2000/svg">
<rect width="20" height="20" rx="3" fill="#2D312A"/>
<g clip-path="url(#clip0_802_3599)">
<path d="M15.3272 5.44824L14.359 16.2939L10.0072 17.5004L5.66731 16.2956L4.7002 5.44824H15.3272Z" fill="#A6A999"/>
<path d="M6.91748 10.3584L7.03672 11.6888H10.0139V10.3584H6.91748Z" fill="#2D312A"/>
<path d="M10.0137 7.66504H10.0091H6.67773L6.79867 8.99544H10.0137V7.66504Z" fill="#2D312A"/>
<path d="M10.0134 15.1972V13.8131L10.0076 13.8146L8.52592 13.4146L8.4312 12.3535H7.71123H7.0957L7.28209 14.4424L10.0073 15.1989L10.0134 15.1972Z" fill="#2D312A"/>
<path d="M7.20117 2.5H8.8125V3.17383H7.875V3.84766H8.8125V4.52148H7.20117V2.5Z" fill="#A6A999"/>
<path d="M9.13477 2.5H10.7461V3.08594H9.80859V3.20312H10.7461V4.55078H9.13477V3.93555H10.0723V3.81836H9.13477V2.5Z" fill="#A6A999"/>
<path d="M11.0684 2.5H12.6797V3.08594H11.7422V3.20312H12.6797V4.55078H11.0684V3.93555H12.0059V3.81836H11.0684V2.5Z" fill="#A6A999"/>
<path d="M11.6475 11.6881L11.4931 13.4136L10.0093 13.814V15.1981L12.7366 14.4423L12.7567 14.2175L13.0693 10.715L13.1017 10.3578L13.3419 7.66504H10.0093V8.99544H11.8839L11.7629 10.3578H10.0093V11.6881H11.6475Z" fill="#2D312A"/>
</g>
<defs>
<clipPath id="clip0_802_3599">
<rect width="10.627" height="15" fill="white" transform="translate(4.7002 2.5)"/>
</clipPath>
</defs>
</svg>
