<svg width="20" height="20" viewBox="0 0 20 20" fill="none" xmlns="http://www.w3.org/2000/svg">
<g clip-path="url(#clip0_802_3570)">
<path d="M20 0H0V20H20V0Z" fill="#2D312A"/>
<path fill-rule="evenodd" clip-rule="evenodd" d="M8.13603 8.4208C7.24953 8.4208 6.53088 9.1392 6.53088 10.0254C6.53088 10.9116 7.24953 11.63 8.13603 11.63H9.78456V10.0254V8.4208H8.13603ZM12.1706 7.64019L12.214 7.64019C13.1005 7.64019 13.8191 6.92179 13.8191 6.03559C13.8191 5.1494 13.1005 4.431 12.214 4.431H10.5654V7.64019L12.1706 7.64019ZM13.5224 8.03049C14.1715 7.60422 14.6 6.86993 14.6 6.03559C14.6 4.71828 13.5317 3.65039 12.214 3.65039H10.5654H10.175H9.78456H8.13603C6.81826 3.65039 5.75 4.71828 5.75 6.03559C5.75 6.86993 6.17853 7.60422 6.82758 8.03049C6.17853 8.45677 5.75 9.19105 5.75 10.0254C5.75 10.8597 6.17853 11.594 6.82758 12.0203C6.17853 12.4466 5.75 13.1808 5.75 14.0152C5.75 15.3352 6.83179 16.4004 8.14682 16.4004C9.47382 16.4004 10.5654 15.3255 10.5654 13.9935V12.4106V12.0203V11.7902C10.9893 12.1756 11.5525 12.4106 12.1706 12.4106H12.214C13.5317 12.4106 14.6 11.3427 14.6 10.0254C14.6 9.19105 14.1715 8.45677 13.5224 8.03049ZM12.214 8.4208L12.1706 8.4208C11.2841 8.4208 10.5654 9.1392 10.5654 10.0254C10.5654 10.9116 11.2841 11.63 12.1706 11.63H12.214C13.1005 11.63 13.8191 10.9116 13.8191 10.0254C13.8191 9.1392 13.1005 8.4208 12.214 8.4208ZM6.53088 14.0152C6.53088 13.129 7.24953 12.4106 8.13603 12.4106H9.78456V13.9935C9.78456 14.8889 9.04804 15.6198 8.14682 15.6198C7.25757 15.6198 6.53088 14.8986 6.53088 14.0152ZM9.78456 7.64019H8.13603C7.24953 7.64019 6.53088 6.92179 6.53088 6.03559C6.53088 5.1494 7.24953 4.431 8.13603 4.431H9.78456V7.64019Z" fill="#A6A999"/>
</g>
<defs>
<clipPath id="clip0_802_3570">
<rect width="20" height="20" rx="3" fill="white"/>
</clipPath>
</defs>
</svg>
