<svg width="20" height="20" viewBox="0 0 20 20" fill="none" xmlns="http://www.w3.org/2000/svg">
<rect width="20" height="20" rx="3" fill="#2D312A"/>
<path d="M8.01371 13.5714C8.01371 13.6197 7.95806 13.6585 7.8879 13.6585C7.80806 13.6657 7.75242 13.627 7.75242 13.5714C7.75242 13.523 7.80806 13.4843 7.87823 13.4843C7.95081 13.477 8.01371 13.5157 8.01371 13.5714ZM7.26129 13.4625C7.24435 13.5109 7.29274 13.5665 7.36532 13.581C7.42823 13.6052 7.50081 13.581 7.51532 13.5326C7.52984 13.4843 7.48387 13.4286 7.41129 13.4068C7.34839 13.3899 7.27823 13.4141 7.26129 13.4625ZM8.33065 13.4214C8.26048 13.4383 8.2121 13.4843 8.21935 13.5399C8.22661 13.5883 8.28952 13.6197 8.3621 13.6028C8.43226 13.5859 8.48064 13.5399 8.47339 13.4915C8.46613 13.4456 8.40081 13.4141 8.33065 13.4214ZM9.92258 4.15039C6.56694 4.15039 4 6.69797 4 10.0536C4 12.7367 5.68871 15.0326 8.10081 15.8407C8.41048 15.8964 8.51935 15.7052 8.51935 15.548C8.51935 15.398 8.5121 14.5706 8.5121 14.0625C8.5121 14.0625 6.81855 14.4254 6.4629 13.3415C6.4629 13.3415 6.1871 12.6375 5.79032 12.456C5.79032 12.456 5.23629 12.0762 5.82903 12.0835C5.82903 12.0835 6.43145 12.1318 6.7629 12.7076C7.29274 13.6415 8.18065 13.373 8.52661 13.2133C8.58226 12.8262 8.73952 12.5576 8.91371 12.398C7.56129 12.248 6.19677 12.052 6.19677 9.72458C6.19677 9.05926 6.38065 8.72539 6.76774 8.29958C6.70484 8.14233 6.49919 7.49394 6.83065 6.65684C7.33629 6.49958 8.5 7.31007 8.5 7.31007C8.98387 7.17458 9.50403 7.10442 10.0194 7.10442C10.5347 7.10442 11.0548 7.17458 11.5387 7.31007C11.5387 7.31007 12.7024 6.49716 13.2081 6.65684C13.5395 7.49636 13.3339 8.14233 13.271 8.29958C13.6581 8.72781 13.8952 9.06168 13.8952 9.72458C13.8952 12.0593 12.4702 12.2456 11.1177 12.398C11.3403 12.5891 11.529 12.952 11.529 13.5206C11.529 14.3359 11.5218 15.3447 11.5218 15.5431C11.5218 15.7004 11.6331 15.8915 11.9403 15.8359C14.3597 15.0326 16 12.7367 16 10.0536C16 6.69797 13.2782 4.15039 9.92258 4.15039ZM6.35161 12.4947C6.32016 12.5189 6.32742 12.5746 6.36855 12.6206C6.40726 12.6593 6.4629 12.6762 6.49435 12.6447C6.52581 12.6206 6.51855 12.5649 6.47742 12.5189C6.43871 12.4802 6.38306 12.4633 6.35161 12.4947ZM6.09032 12.2988C6.07339 12.3302 6.09758 12.3689 6.14597 12.3931C6.18468 12.4173 6.23306 12.4101 6.25 12.3762C6.26694 12.3447 6.24274 12.306 6.19435 12.2818C6.14597 12.2673 6.10726 12.2746 6.09032 12.2988ZM6.87419 13.1601C6.83548 13.1915 6.85 13.2641 6.90565 13.3101C6.96129 13.3657 7.03145 13.373 7.0629 13.3343C7.09435 13.3028 7.07984 13.2302 7.03145 13.1843C6.97823 13.1286 6.90565 13.1214 6.87419 13.1601ZM6.59839 12.8044C6.55968 12.8286 6.55968 12.8915 6.59839 12.9472C6.6371 13.0028 6.70242 13.027 6.73387 13.0028C6.77258 12.9714 6.77258 12.9085 6.73387 12.8528C6.7 12.7972 6.6371 12.773 6.59839 12.8044Z" fill="#A6A999"/>
</svg>
