<svg width="20" height="20" viewBox="0 0 20 20" fill="none" xmlns="http://www.w3.org/2000/svg">
<rect width="20" height="20" rx="3" fill="#A6A999"/>
<g clip-path="url(#clip0_559_3670)">
<path d="M5.67578 2.5H6.34961V3.16797H6.9707V2.5H7.64453V4.52148H6.9707V3.84766H6.35547V4.52148H5.67578M8.53516 3.17383H7.94043V2.5H9.80664V3.17383H9.20898V4.52148H8.53516M10.1025 2.5H10.8086L11.2422 3.21191L11.6758 2.5H12.3818V4.52148H11.708V3.51953L11.2363 4.24609L10.7646 3.51953V4.52148H10.1025M12.7158 2.5H13.3896V3.85352H14.3447V4.52148H12.7158" fill="#2D312A"/>
<path d="M5.65234 16.2988L4.68555 5.44727H15.3145L14.3477 16.293L9.99121 17.5" fill="#2D312A"/>
<path d="M6.66016 7.66504H10V8.99512H8.11914L8.24219 10.3574H10V11.6846H7.02344M7.08203 12.3525H8.41797L8.51172 13.416L10 13.8145V15.2031L7.26953 14.4414" fill="#A6A999"/>
<path d="M13.3281 7.66504H9.99414V8.99512H13.2051M13.085 10.3574H9.99414V11.6875H11.6348L11.4795 13.416L9.99414 13.8145V15.1973L12.7187 14.4414" fill="#A6A999"/>
</g>
<defs>
<clipPath id="clip0_559_3670">
<rect width="15" height="15" fill="white" transform="translate(2.5 2.5)"/>
</clipPath>
</defs>
</svg>
