<svg width="20" height="20" viewBox="0 0 20 20" fill="none" xmlns="http://www.w3.org/2000/svg">
<g clip-path="url(#clip0_559_3628)">
<path d="M3.54167 0H16.4583C18.4167 0 20 1.62393 20 3.63248V16.3675C20 18.3761 18.4167 20 16.4583 20H3.54167C1.58333 20 0 18.3761 0 16.3675V3.63248C0 1.62393 1.58333 0 3.54167 0Z" fill="#A6A999"/>
<path d="M9.66655 12.3417H6.56655L5.93322 14.3C5.91655 14.375 5.84989 14.425 5.77489 14.4167H4.20822C4.11655 14.4167 4.09155 14.3667 4.11655 14.2667L6.79988 6.54167C6.82488 6.45833 6.84988 6.36667 6.88322 6.26667C6.91655 6.09167 6.93322 5.90833 6.93322 5.725C6.92488 5.68333 6.95822 5.64167 6.99988 5.63333H9.15822C9.22488 5.63333 9.25822 5.65833 9.26655 5.7L12.3082 14.2833C12.3332 14.375 12.3082 14.4167 12.2249 14.4167H10.4832C10.4249 14.425 10.3666 14.3833 10.3499 14.325L9.66655 12.3417ZM7.04988 10.65H9.16655C9.11655 10.475 9.04988 10.2667 8.97488 10.05C8.89988 9.825 8.82488 9.58333 8.74988 9.33333C8.66655 9.075 8.59155 8.825 8.50822 8.56667C8.42488 8.30833 8.34988 8.06667 8.28322 7.825C8.21655 7.59167 8.15822 7.375 8.09988 7.175H8.08322C8.00822 7.53333 7.91655 7.89167 7.79988 8.25C7.67488 8.65 7.54988 9.06667 7.41655 9.48333C7.29988 9.90833 7.17488 10.3 7.04988 10.65ZM14.1666 7.09167C13.8916 7.1 13.6249 6.99167 13.4249 6.8C13.2332 6.59167 13.1332 6.31667 13.1416 6.03333C13.1332 5.75 13.2416 5.48333 13.4416 5.29167C13.6416 5.1 13.9082 5 14.1832 5C14.5082 5 14.7582 5.1 14.9416 5.29167C15.1249 5.49167 15.2249 5.75833 15.2166 6.03333C15.2249 6.31667 15.1249 6.59167 14.9249 6.8C14.7332 7 14.4499 7.10833 14.1666 7.09167ZM13.2332 14.325V7.90833C13.2332 7.825 13.2666 7.79167 13.3416 7.79167H14.9916C15.0666 7.79167 15.0999 7.83333 15.0999 7.90833V14.325C15.0999 14.4167 15.0666 14.4583 14.9916 14.4583H13.3582C13.2749 14.4583 13.2332 14.4083 13.2332 14.325Z" fill="#2D312A"/>
</g>
<defs>
<clipPath id="clip0_559_3628">
<rect width="20" height="20" fill="white"/>
</clipPath>
</defs>
</svg>
