<svg width="20" height="20" viewBox="0 0 20 20" fill="none" xmlns="http://www.w3.org/2000/svg">
<g clip-path="url(#clip0_481_854)">
<path d="M3.54167 0H16.4583C18.4167 0 20 1.62393 20 3.63248V16.3675C20 18.3761 18.4167 20 16.4583 20H3.54167C1.58333 20 0 18.3761 0 16.3675V3.63248C0 1.62393 1.58333 0 3.54167 0Z" fill="#111111"/>
<path d="M9.66667 12.3417H6.56667L5.93334 14.3C5.91667 14.375 5.85001 14.425 5.77501 14.4167H4.20834C4.11667 14.4167 4.09167 14.3667 4.11667 14.2667L6.80001 6.54167C6.82501 6.45833 6.85001 6.36667 6.88334 6.26667C6.91667 6.09167 6.93334 5.90833 6.93334 5.725C6.92501 5.68333 6.95834 5.64167 7.00001 5.63333H9.15834C9.22501 5.63333 9.25834 5.65833 9.26667 5.7L12.3083 14.2833C12.3333 14.375 12.3083 14.4167 12.225 14.4167H10.4833C10.425 14.425 10.3667 14.3833 10.35 14.325L9.66667 12.3417ZM7.05001 10.65H9.16667C9.11667 10.475 9.05001 10.2667 8.97501 10.05C8.90001 9.825 8.82501 9.58333 8.75001 9.33333C8.66667 9.075 8.59167 8.825 8.50834 8.56667C8.42501 8.30833 8.35001 8.06667 8.28334 7.825C8.21667 7.59167 8.15834 7.375 8.10001 7.175H8.08334C8.00834 7.53333 7.91667 7.89167 7.80001 8.25C7.67501 8.65 7.55001 9.06667 7.41667 9.48333C7.30001 9.90833 7.17501 10.3 7.05001 10.65ZM14.1667 7.09167C13.8917 7.1 13.625 6.99167 13.425 6.8C13.2333 6.59167 13.1333 6.31667 13.1417 6.03333C13.1333 5.75 13.2417 5.48333 13.4417 5.29167C13.6417 5.1 13.9083 5 14.1833 5C14.5083 5 14.7583 5.1 14.9417 5.29167C15.125 5.49167 15.225 5.75833 15.2167 6.03333C15.225 6.31667 15.125 6.59167 14.925 6.8C14.7333 7 14.45 7.10833 14.1667 7.09167ZM13.2333 14.325V7.90833C13.2333 7.825 13.2667 7.79167 13.3417 7.79167H14.9917C15.0667 7.79167 15.1 7.83333 15.1 7.90833V14.325C15.1 14.4167 15.0667 14.4583 14.9917 14.4583H13.3583C13.275 14.4583 13.2333 14.4083 13.2333 14.325Z" fill="white"/>
</g>
<defs>
<clipPath id="clip0_481_854">
<rect width="20" height="20" fill="white"/>
</clipPath>
</defs>
</svg>
