<svg width="20" height="20" viewBox="0 0 20 20" fill="none" xmlns="http://www.w3.org/2000/svg">
<rect width="20" height="20" rx="3" fill="#A6A999"/>
<path fill-rule="evenodd" clip-rule="evenodd" d="M10.0399 14.8798C10.0399 16.5598 9.03995 17.5465 7.30661 17.5465C5.57328 17.5465 4.65328 16.5732 4.61328 15.0665V15.0265H6.23995V15.0532C6.26661 15.6665 6.63995 16.0932 7.29328 16.0932C7.99995 16.0932 8.37328 15.6665 8.37328 14.8665V9.34648H10.0399V14.8798ZM17.7199 14.9598C17.7199 16.5465 16.4933 17.5465 14.4933 17.5465C12.4933 17.5465 11.3733 16.6398 11.2799 15.2132V15.1198H12.8799V15.1732C12.9466 15.7732 13.5999 16.1732 14.5333 16.1732C15.4666 16.1732 16.0399 15.7465 16.0399 15.1332C16.0399 14.5998 15.6533 14.3065 14.6533 14.1065L13.8133 13.9332C12.1466 13.5998 11.4399 12.8265 11.4399 11.6132C11.4399 10.1198 12.7066 9.14648 14.4799 9.14648C16.3466 9.14648 17.4399 10.1332 17.5466 11.4665V11.5332H15.9866V11.4665C15.8799 10.8932 15.3333 10.4932 14.4933 10.4932C13.6666 10.4932 13.1199 10.8798 13.1199 11.4665C13.1199 11.9865 13.5066 12.3065 14.4533 12.4932L15.2933 12.6665C16.9866 13.0132 17.7199 13.6932 17.7199 14.9332V14.9598Z" fill="#2D312A"/>
</svg>
