<svg width="20" height="20" viewBox="0 0 20 20" fill="none" xmlns="http://www.w3.org/2000/svg">
<rect width="20" height="20" fill="#C000FF" fill-opacity="0.1"/>
<rect width="20" height="20" rx="3" fill="#111111"/>
<path fill-rule="evenodd" clip-rule="evenodd" d="M10.04 14.8798C10.04 16.5598 9.04001 17.5465 7.30668 17.5465C5.57334 17.5465 4.65334 16.5732 4.61334 15.0665V15.0265H6.24001V15.0532C6.26668 15.6665 6.64001 16.0932 7.29334 16.0932C8.00001 16.0932 8.37334 15.6665 8.37334 14.8665V9.34648H10.04V14.8798ZM17.72 14.9598C17.72 16.5465 16.4933 17.5465 14.4933 17.5465C12.4933 17.5465 11.3733 16.6398 11.28 15.2132V15.1198H12.88V15.1732C12.9467 15.7732 13.6 16.1732 14.5333 16.1732C15.4667 16.1732 16.04 15.7465 16.04 15.1332C16.04 14.5998 15.6533 14.3065 14.6533 14.1065L13.8133 13.9332C12.1467 13.5998 11.44 12.8265 11.44 11.6132C11.44 10.1198 12.7067 9.14648 14.48 9.14648C16.3467 9.14648 17.44 10.1332 17.5467 11.4665V11.5332H15.9867V11.4665C15.88 10.8932 15.3333 10.4932 14.4933 10.4932C13.6667 10.4932 13.12 10.8798 13.12 11.4665C13.12 11.9865 13.5067 12.3065 14.4533 12.4932L15.2933 12.6665C16.9867 13.0132 17.72 13.6932 17.72 14.9332V14.9598Z" fill="white"/>
</svg>
