<svg width="20" height="20" viewBox="0 0 20 20" fill="none" xmlns="http://www.w3.org/2000/svg">
<path d="M3.54167 0H16.4583C18.4167 0 20 1.62393 20 3.63248V16.3675C20 18.3761 18.4167 20 16.4583 20H3.54167C1.58333 20 0 18.3761 0 16.3675V3.63248C0 1.62393 1.58333 0 3.54167 0Z" fill="#2D312A"/>
<path d="M4.5 14.0251V5.23026C4.5 5.17043 4.525 5.13624 4.58333 5.13624C4.725 5.13624 4.85833 5.13624 5.05 5.1277C5.25 5.11915 5.45833 5.11915 5.68333 5.1106C5.90833 5.10205 6.15 5.10205 6.40833 5.09351C6.66667 5.08496 6.91667 5.08496 7.16667 5.08496C7.85 5.08496 8.41667 5.17043 8.88333 5.34992C9.3 5.49522 9.68333 5.73453 10 6.05077C10.2667 6.32428 10.475 6.65761 10.6083 7.02513C10.7333 7.38411 10.8 7.75163 10.8 8.13624C10.8 8.87129 10.6333 9.47812 10.3 9.95676C9.96667 10.4354 9.5 10.7944 8.95833 10.9995C8.39167 11.2132 7.76667 11.2901 7.08333 11.2901C6.88333 11.2901 6.75 11.2901 6.66667 11.2815C6.58333 11.273 6.46667 11.273 6.30833 11.273V14.0166C6.31667 14.0764 6.275 14.1277 6.21667 14.1362C6.20833 14.1362 6.2 14.1362 6.18333 14.1362H4.6C4.53333 14.1362 4.5 14.1021 4.5 14.0251ZM6.31667 6.78582V9.65761C6.43333 9.66616 6.54167 9.6747 6.64167 9.6747H7.08333C7.40833 9.6747 7.73333 9.62342 8.04167 9.52086C8.30833 9.44394 8.54167 9.28154 8.725 9.06787C8.9 8.85419 8.98333 8.56359 8.98333 8.18753C8.99167 7.92257 8.925 7.65761 8.79167 7.42684C8.65 7.20462 8.45 7.03368 8.20833 6.93966C7.9 6.81146 7.56667 6.76017 7.225 6.76872C7.00833 6.76872 6.81667 6.76872 6.65833 6.77727C6.49167 6.76872 6.375 6.77727 6.31667 6.78582Z" fill="#A6A999"/>
<path d="M15.9998 9.1367C15.7498 8.99995 15.4832 8.90593 15.1998 8.8461C14.8915 8.77773 14.5832 8.73499 14.2665 8.73499C14.0998 8.72645 13.9248 8.75209 13.7665 8.79482C13.6582 8.82046 13.5665 8.88029 13.5082 8.96576C13.4665 9.03414 13.4415 9.11961 13.4415 9.19653C13.4415 9.27345 13.4748 9.35038 13.5248 9.41875C13.5998 9.51277 13.6998 9.58969 13.8082 9.64952C13.9998 9.75209 14.1998 9.8461 14.3998 9.93157C14.8498 10.0854 15.2832 10.2991 15.6832 10.5555C15.9582 10.735 16.1832 10.9743 16.3415 11.2649C16.4748 11.5384 16.5415 11.8376 16.5332 12.1452C16.5415 12.547 16.4248 12.9487 16.2082 13.282C15.9748 13.6239 15.6498 13.8888 15.2748 14.0427C14.8665 14.2222 14.3665 14.3162 13.7665 14.3162C13.3832 14.3162 13.0082 14.282 12.6332 14.2051C12.3415 14.1538 12.0498 14.0598 11.7832 13.9316C11.7248 13.8974 11.6832 13.8376 11.6915 13.7692V12.282C11.6915 12.2564 11.6998 12.2222 11.7248 12.2051C11.7498 12.188 11.7748 12.1965 11.7998 12.2136C12.1248 12.4102 12.4665 12.547 12.8332 12.6324C13.1498 12.7179 13.4832 12.7606 13.8165 12.7606C14.1332 12.7606 14.3582 12.7179 14.5082 12.641C14.6415 12.5811 14.7332 12.4358 14.7332 12.282C14.7332 12.1623 14.6665 12.0512 14.5332 11.9401C14.3998 11.829 14.1248 11.7008 13.7165 11.5384C13.2915 11.3846 12.8998 11.1794 12.5332 10.923C12.2748 10.735 12.0582 10.4871 11.8998 10.1965C11.7665 9.92303 11.6998 9.62388 11.7082 9.32474C11.7082 8.95721 11.8082 8.60679 11.9915 8.29055C12.1998 7.94867 12.5082 7.67516 12.8665 7.50422C13.2582 7.2991 13.7498 7.20508 14.3415 7.20508C14.6832 7.20508 15.0332 7.23072 15.3748 7.282C15.6248 7.31619 15.8665 7.38457 16.0915 7.47858C16.1248 7.48713 16.1582 7.52132 16.1748 7.55551C16.1832 7.58969 16.1915 7.62388 16.1915 7.65807V9.05123C16.1915 9.08542 16.1748 9.11961 16.1498 9.1367C16.0748 9.1538 16.0332 9.1538 15.9998 9.1367Z" fill="#A6A999"/>
</svg>
