<svg width="20" height="20" viewBox="0 0 20 20" fill="none" xmlns="http://www.w3.org/2000/svg">
<path d="M3.54167 0H16.4583C18.4167 0 20 1.62393 20 3.63248V16.3675C20 18.3761 18.4167 20 16.4583 20H3.54167C1.58333 20 0 18.3761 0 16.3675V3.63248C0 1.62393 1.58333 0 3.54167 0Z" fill="#A6A999"/>
<path d="M4.5 14.0261V5.23124C4.5 5.17141 4.525 5.13722 4.58333 5.13722C4.725 5.13722 4.85833 5.13722 5.05 5.12867C5.25 5.12013 5.45833 5.12013 5.68333 5.11158C5.90833 5.10303 6.15 5.10303 6.40833 5.09448C6.66667 5.08594 6.91667 5.08594 7.16667 5.08594C7.85 5.08594 8.41667 5.17141 8.88333 5.35089C9.3 5.49619 9.68333 5.73551 10 6.05175C10.2667 6.32525 10.475 6.65859 10.6083 7.02611C10.7333 7.38508 10.8 7.7526 10.8 8.13722C10.8 8.87226 10.6333 9.4791 10.3 9.95773C9.96667 10.4364 9.5 10.7953 8.95833 11.0005C8.39167 11.2141 7.76667 11.2911 7.08333 11.2911C6.88333 11.2911 6.75 11.2911 6.66667 11.2825C6.58333 11.274 6.46667 11.274 6.30833 11.274V14.0176C6.31667 14.0774 6.275 14.1287 6.21667 14.1372C6.20833 14.1372 6.2 14.1372 6.18333 14.1372H4.6C4.53333 14.1372 4.5 14.103 4.5 14.0261ZM6.31667 6.78679V9.65859C6.43333 9.66713 6.54167 9.67568 6.64167 9.67568H7.08333C7.40833 9.67568 7.73333 9.6244 8.04167 9.52183C8.30833 9.44491 8.54167 9.28252 8.725 9.06884C8.9 8.85517 8.98333 8.56457 8.98333 8.1885C8.99167 7.92354 8.925 7.65859 8.79167 7.42782C8.65 7.2056 8.45 7.03466 8.20833 6.94064C7.9 6.81243 7.56667 6.76115 7.225 6.7697C7.00833 6.7697 6.81667 6.7697 6.65833 6.77825C6.49167 6.7697 6.375 6.77825 6.31667 6.78679Z" fill="#2D312A"/>
<path d="M15.9998 9.13768C15.7498 9.00093 15.4832 8.90691 15.1998 8.84708C14.8915 8.7787 14.5832 8.73597 14.2665 8.73597C14.0998 8.72742 13.9248 8.75306 13.7665 8.7958C13.6582 8.82144 13.5665 8.88127 13.5082 8.96674C13.4665 9.03511 13.4415 9.12058 13.4415 9.19751C13.4415 9.27443 13.4748 9.35135 13.5248 9.41973C13.5998 9.51375 13.6998 9.59067 13.8082 9.6505C13.9998 9.75306 14.1998 9.84708 14.3998 9.93255C14.8498 10.0864 15.2832 10.3001 15.6832 10.5565C15.9582 10.736 16.1832 10.9753 16.3415 11.2659C16.4748 11.5394 16.5415 11.8385 16.5332 12.1462C16.5415 12.5479 16.4248 12.9496 16.2082 13.283C15.9748 13.6249 15.6498 13.8898 15.2748 14.0437C14.8665 14.2231 14.3665 14.3172 13.7665 14.3172C13.3832 14.3172 13.0082 14.283 12.6332 14.2061C12.3415 14.1548 12.0498 14.0608 11.7832 13.9325C11.7248 13.8984 11.6832 13.8385 11.6915 13.7702V12.283C11.6915 12.2573 11.6998 12.2231 11.7248 12.2061C11.7498 12.189 11.7748 12.1975 11.7998 12.2146C12.1248 12.4112 12.4665 12.5479 12.8332 12.6334C13.1498 12.7189 13.4832 12.7616 13.8165 12.7616C14.1332 12.7616 14.3582 12.7189 14.5082 12.642C14.6415 12.5821 14.7332 12.4368 14.7332 12.283C14.7332 12.1633 14.6665 12.0522 14.5332 11.9411C14.3998 11.83 14.1248 11.7018 13.7165 11.5394C13.2915 11.3855 12.8998 11.1804 12.5332 10.924C12.2748 10.736 12.0582 10.4881 11.8998 10.1975C11.7665 9.924 11.6998 9.62486 11.7082 9.32571C11.7082 8.95819 11.8082 8.60776 11.9915 8.29152C12.1998 7.94964 12.5082 7.67614 12.8665 7.5052C13.2582 7.30007 13.7498 7.20605 14.3415 7.20605C14.6832 7.20605 15.0332 7.2317 15.3748 7.28298C15.6248 7.31717 15.8665 7.38554 16.0915 7.47956C16.1248 7.48811 16.1582 7.52229 16.1748 7.55648C16.1832 7.59067 16.1915 7.62486 16.1915 7.65905V9.05221C16.1915 9.0864 16.1748 9.12058 16.1498 9.13768C16.0748 9.15477 16.0332 9.15477 15.9998 9.13768Z" fill="#2D312A"/>
</svg>
