<svg width="20" height="20" viewBox="0 0 20 20" fill="none" xmlns="http://www.w3.org/2000/svg">
<path d="M3.54167 0H16.4583C18.4167 0 20 1.62393 20 3.63248V16.3675C20 18.3761 18.4167 20 16.4583 20H3.54167C1.58333 20 0 18.3761 0 16.3675V3.63248C0 1.62393 1.58333 0 3.54167 0Z" fill="#111111"/>
<path d="M4.5 14.0256V5.23075C4.5 5.17092 4.525 5.13673 4.58333 5.13673C4.725 5.13673 4.85833 5.13673 5.05 5.12818C5.25 5.11964 5.45833 5.11964 5.68333 5.11109C5.90833 5.10254 6.15 5.10254 6.40833 5.094C6.66667 5.08545 6.91667 5.08545 7.16667 5.08545C7.85 5.08545 8.41667 5.17092 8.88333 5.35041C9.3 5.49571 9.68333 5.73502 10 6.05126C10.2667 6.32477 10.475 6.6581 10.6083 7.02562C10.7333 7.38459 10.8 7.75212 10.8 8.13673C10.8 8.87177 10.6333 9.47861 10.3 9.95724C9.96667 10.4359 9.5 10.7949 8.95833 11C8.39167 11.2137 7.76667 11.2906 7.08333 11.2906C6.88333 11.2906 6.75 11.2906 6.66667 11.282C6.58333 11.2735 6.46667 11.2735 6.30833 11.2735V14.0171C6.31667 14.0769 6.275 14.1282 6.21667 14.1367C6.20833 14.1367 6.2 14.1367 6.18333 14.1367H4.6C4.53333 14.1367 4.5 14.1025 4.5 14.0256ZM6.31667 6.7863V9.6581C6.43333 9.66665 6.54167 9.67519 6.64167 9.67519H7.08333C7.40833 9.67519 7.73333 9.62391 8.04167 9.52135C8.30833 9.44442 8.54167 9.28203 8.725 9.06835C8.9 8.85468 8.98333 8.56408 8.98333 8.18801C8.99167 7.92306 8.925 7.6581 8.79167 7.42733C8.65 7.20511 8.45 7.03417 8.20833 6.94015C7.9 6.81194 7.56667 6.76066 7.225 6.76921C7.00833 6.76921 6.81667 6.76921 6.65833 6.77776C6.49167 6.76921 6.375 6.77776 6.31667 6.7863Z" fill="white"/>
<path d="M16 9.1367C15.75 8.99995 15.4833 8.90593 15.2 8.8461C14.8917 8.77773 14.5833 8.73499 14.2667 8.73499C14.1 8.72645 13.925 8.75209 13.7667 8.79482C13.6583 8.82046 13.5667 8.88029 13.5083 8.96576C13.4667 9.03414 13.4417 9.11961 13.4417 9.19653C13.4417 9.27345 13.475 9.35038 13.525 9.41875C13.6 9.51277 13.7 9.58969 13.8083 9.64952C14 9.75209 14.2 9.8461 14.4 9.93157C14.85 10.0854 15.2833 10.2991 15.6833 10.5555C15.9583 10.735 16.1833 10.9743 16.3417 11.2649C16.475 11.5384 16.5417 11.8376 16.5333 12.1452C16.5417 12.547 16.425 12.9487 16.2083 13.282C15.975 13.6239 15.65 13.8888 15.275 14.0427C14.8667 14.2222 14.3667 14.3162 13.7667 14.3162C13.3833 14.3162 13.0083 14.282 12.6333 14.2051C12.3417 14.1538 12.05 14.0598 11.7833 13.9316C11.725 13.8974 11.6833 13.8376 11.6917 13.7692V12.282C11.6917 12.2564 11.7 12.2222 11.725 12.2051C11.75 12.188 11.775 12.1965 11.8 12.2136C12.125 12.4102 12.4667 12.547 12.8333 12.6324C13.15 12.7179 13.4833 12.7606 13.8167 12.7606C14.1333 12.7606 14.3583 12.7179 14.5083 12.641C14.6417 12.5811 14.7333 12.4358 14.7333 12.282C14.7333 12.1623 14.6667 12.0512 14.5333 11.9401C14.4 11.829 14.125 11.7008 13.7167 11.5384C13.2917 11.3846 12.9 11.1794 12.5333 10.923C12.275 10.735 12.0583 10.4871 11.9 10.1965C11.7667 9.92303 11.7 9.62388 11.7083 9.32474C11.7083 8.95721 11.8083 8.60679 11.9917 8.29055C12.2 7.94867 12.5083 7.67516 12.8667 7.50422C13.2583 7.2991 13.75 7.20508 14.3417 7.20508C14.6833 7.20508 15.0333 7.23072 15.375 7.282C15.625 7.31619 15.8667 7.38457 16.0917 7.47858C16.125 7.48713 16.1583 7.52132 16.175 7.55551C16.1833 7.58969 16.1917 7.62388 16.1917 7.65807V9.05123C16.1917 9.08542 16.175 9.11961 16.15 9.1367C16.075 9.1538 16.0333 9.1538 16 9.1367Z" fill="white"/>
</svg>
