<svg width="20" height="20" viewBox="0 0 20 20" fill="none" xmlns="http://www.w3.org/2000/svg">
<g clip-path="url(#clip0_481_894)">
<path d="M3.54167 0H16.4583C18.4167 0 20 1.62393 20 3.63248V16.3675C20 18.3761 18.4167 20 16.4583 20H3.54167C1.58333 20 0 18.3761 0 16.3675V3.63248C0 1.62393 1.58333 0 3.54167 0Z" fill="#111111"/>
<path d="M4.75 13.7255V5.14216C4.75 5.08382 4.775 5.05049 4.83333 5.05049C4.975 5.05049 5.10833 5.05049 5.3 5.04215C5.5 5.03382 5.70833 5.03382 5.93333 5.02549C6.15833 5.01715 6.4 5.01716 6.65833 5.00882C6.91667 5.00049 7.16667 5.00049 7.41667 5.00049C8.1 5.00049 8.66667 5.08382 9.13333 5.25882C9.55 5.40049 9.93333 5.63382 10.25 5.94215C10.5167 6.20882 10.725 6.53382 10.8583 6.89216C10.9833 7.24216 11.05 7.60049 11.05 7.97549C11.05 8.69216 10.8833 9.28382 10.55 9.75049C10.2167 10.2172 9.75 10.5672 9.20833 10.7672C8.64167 10.9755 8.01667 11.0505 7.33333 11.0505C7.13333 11.0505 7 11.0505 6.91667 11.0422C6.83333 11.0338 6.71667 11.0338 6.55833 11.0338V13.7088C6.56667 13.7672 6.525 13.8172 6.46667 13.8255H6.43333H4.85C4.78333 13.8255 4.75 13.7922 4.75 13.7172V13.7255ZM6.56667 6.66716V9.46716C6.68333 9.47549 6.79167 9.48382 6.89167 9.48382H7.33333C7.65833 9.48382 7.98333 9.43382 8.29167 9.33382C8.55833 9.25882 8.79167 9.10049 8.975 8.89216C9.15 8.68382 9.23333 8.40049 9.23333 8.03382C9.24167 7.77549 9.175 7.51716 9.04167 7.29216C8.9 7.07549 8.7 6.90882 8.45833 6.81715C8.15 6.69215 7.81667 6.64215 7.475 6.65049C7.25833 6.65049 7.06667 6.65049 6.90833 6.65882C6.74167 6.65049 6.625 6.65882 6.56667 6.66716Z" fill="white"/>
<path d="M12.25 7.15884H13.7083C13.7916 7.15884 13.8583 7.21718 13.8833 7.29218C13.9083 7.35884 13.925 7.42551 13.9333 7.50051C13.95 7.58384 13.9666 7.67551 13.975 7.75884C13.9833 7.85051 13.9916 7.95051 13.9916 8.05884C14.2416 7.76718 14.5416 7.52551 14.8833 7.34218C15.2666 7.12551 15.7083 7.01718 16.15 7.01718C16.2083 7.00884 16.2583 7.05051 16.2666 7.10884V7.14218V8.76718C16.2666 8.83384 16.225 8.85884 16.1333 8.85884C15.8333 8.85051 15.525 8.87551 15.2333 8.94217C14.9916 8.99217 14.7583 9.06718 14.5333 9.16718C14.375 9.24218 14.225 9.34218 14.1083 9.47551V13.7255C14.1083 13.8088 14.075 13.8422 14 13.8422H12.3583C12.2916 13.8505 12.2333 13.8088 12.225 13.7422V13.7088V9.09218C12.225 8.89218 12.225 8.68384 12.2166 8.46718C12.2083 8.25051 12.2083 8.03384 12.2 7.81718C12.2 7.62551 12.1833 7.44218 12.1666 7.25051C12.1583 7.20884 12.1833 7.16717 12.225 7.15884C12.225 7.15051 12.2416 7.15051 12.25 7.15884Z" fill="white"/>
</g>
<defs>
<clipPath id="clip0_481_894">
<rect width="20" height="20" fill="white"/>
</clipPath>
</defs>
</svg>
