<svg width="20" height="20" viewBox="0 0 20 20" fill="none" xmlns="http://www.w3.org/2000/svg">
<rect width="20" height="20" rx="3" fill="#111111"/>
<path d="M8.34415 12.7764C8.46582 13.2239 8.45248 13.6423 8.32665 14.0206L8.28165 14.1456C8.17638 14.3976 8.02774 14.6291 7.84248 14.8298C7.35748 15.3573 6.68082 15.5564 6.39082 15.3889C6.07832 15.2064 6.23415 14.4623 6.79665 13.8681C7.40165 13.2306 8.26832 12.8198 8.26832 12.8198V12.8181L8.34415 12.7764ZM15.2258 5.23394C14.8492 3.75311 12.395 3.26561 10.0717 4.09144C8.69165 4.58227 7.19415 5.35394 6.11915 6.3606C4.83915 7.5556 4.63582 8.59727 4.71915 9.03227C5.01498 10.5681 7.11998 11.5723 7.98582 12.3173V12.3214C7.72998 12.4456 5.86248 13.3831 5.42582 14.3531C4.95665 15.3739 5.49915 16.1039 5.85332 16.1964C6.94748 16.4989 8.07165 15.9464 8.67665 15.0514C9.25915 14.1756 9.20832 13.0514 8.95748 12.4989C9.30165 12.4056 9.70665 12.3639 10.2275 12.4273C11.6867 12.5931 11.9783 13.5106 11.9141 13.8856C11.8525 14.2598 11.5508 14.4781 11.4467 14.5406C11.3417 14.6039 11.3108 14.6248 11.3208 14.6664C11.3317 14.7281 11.3842 14.7281 11.4667 14.7189C11.5817 14.6981 12.2283 14.4064 12.2592 13.6964C12.29 12.8014 11.4358 11.8023 9.91498 11.8214C9.28998 11.8331 8.89332 11.8848 8.61248 11.9998C8.59353 11.9704 8.56853 11.9454 8.53915 11.9264C7.60165 10.9156 5.86165 10.2073 5.93499 8.86394C5.95582 8.37394 6.13248 7.08311 9.26832 5.52061C11.8417 4.23894 13.8942 4.59394 14.2492 5.37477C14.7575 6.4881 13.1542 8.56227 10.4775 8.86394C9.45665 8.97894 8.92582 8.5831 8.78915 8.43644C8.64415 8.27977 8.62415 8.26977 8.57165 8.30227C8.48748 8.34394 8.53998 8.47894 8.57165 8.5631C8.65498 8.7706 8.97748 9.13644 9.54082 9.32311C10.03 9.47977 11.2275 9.57227 12.6658 9.0106C14.28 8.38644 15.54 6.6456 15.1758 5.18727L15.2258 5.23394Z" fill="white"/>
</svg>
