<svg width="20" height="20" viewBox="0 0 20 20" fill="none" xmlns="http://www.w3.org/2000/svg">
<rect width="20" height="20" rx="3" fill="#2D312A"/>
<path d="M8.34439 12.7764C8.46606 13.2239 8.45273 13.6423 8.32689 14.0206L8.28189 14.1456C8.17662 14.3976 8.02798 14.6291 7.84273 14.8298C7.35773 15.3573 6.68106 15.5564 6.39106 15.3889C6.07856 15.2064 6.2344 14.4623 6.7969 13.8681C7.4019 13.2306 8.26856 12.8198 8.26856 12.8198V12.8181L8.34439 12.7764ZM15.2261 5.23394C14.8494 3.75311 12.3952 3.26561 10.0719 4.09144C8.6919 4.58227 7.1944 5.35394 6.1194 6.3606C4.8394 7.5556 4.63606 8.59727 4.7194 9.03227C5.01523 10.5681 7.12023 11.5723 7.98606 12.3173V12.3214C7.73023 12.4456 5.86273 13.3831 5.42606 14.3531C4.9569 15.3739 5.4994 16.1039 5.85356 16.1964C6.94773 16.4989 8.07189 15.9464 8.67689 15.0514C9.25939 14.1756 9.20856 13.0514 8.95773 12.4989C9.30189 12.4056 9.7069 12.3639 10.2277 12.4273C11.6869 12.5931 11.9786 13.5106 11.9144 13.8856C11.8527 14.2598 11.5511 14.4781 11.4469 14.5406C11.3419 14.6039 11.3111 14.6248 11.3211 14.6664C11.3319 14.7281 11.3844 14.7281 11.4669 14.7189C11.5819 14.6981 12.2286 14.4064 12.2594 13.6964C12.2902 12.8014 11.4361 11.8023 9.91523 11.8214C9.29023 11.8331 8.89356 11.8848 8.61273 11.9998C8.59378 11.9704 8.56878 11.9454 8.53939 11.9264C7.6019 10.9156 5.8619 10.2073 5.93523 8.86394C5.95606 8.37394 6.13273 7.08311 9.26856 5.52061C11.8419 4.23894 13.8944 4.59394 14.2494 5.37477C14.7577 6.4881 13.1544 8.56227 10.4777 8.86394C9.4569 8.97894 8.92606 8.5831 8.78939 8.43644C8.64439 8.27977 8.6244 8.26977 8.5719 8.30227C8.48773 8.34394 8.54023 8.47894 8.5719 8.5631C8.65523 8.7706 8.97773 9.13644 9.54106 9.32311C10.0302 9.47977 11.2277 9.57227 12.6661 9.0106C14.2802 8.38644 15.5402 6.6456 15.1761 5.18727L15.2261 5.23394Z" fill="#A6A999"/>
</svg>
