<svg width="20" height="20" viewBox="0 0 20 20" fill="none" xmlns="http://www.w3.org/2000/svg">
<rect width="20" height="20" rx="3" fill="#111111"/>
<path d="M10.4618 5.88136L7.96626 10.1059L10.6361 14.5919C10.6916 14.6936 10.6361 14.7161 10.5557 14.7161H8.65055C8.51633 14.7161 8.4224 14.7112 8.36876 14.6194C8.18969 14.2616 8.01083 13.9061 7.83205 13.5529C7.65305 13.1999 7.46298 12.8398 7.2619 12.4727C7.06062 12.1059 6.86162 11.7344 6.66483 11.3581C6.48583 11.7251 6.28676 12.0921 6.09462 12.459C5.90219 12.826 5.71212 13.1906 5.52441 13.5529C5.33659 13.9154 5.14428 14.2755 4.94751 14.6331C4.91166 14.7157 4.84896 14.7242 4.75964 14.7242H2.92159C2.84937 14.7242 2.84065 14.6699 2.88135 14.6056L5.47074 10.2435L2.9484 5.86758C2.90259 5.80515 2.94202 5.73865 3.0155 5.74372H4.90722C4.98914 5.73915 5.06153 5.77 5.10848 5.84008C5.26949 6.20708 5.44838 6.57408 5.64514 6.94093C5.84176 7.30793 6.04083 7.67036 6.24219 8.02801C6.44348 8.38579 6.64248 8.74815 6.8124 9.11515C6.99119 8.73908 7.17233 8.37215 7.35576 8.01429C7.53905 7.65651 7.72683 7.29643 7.91926 6.93408C8.11155 6.57179 8.29712 6.21172 8.47605 5.85386C8.49983 5.77536 8.55669 5.73558 8.63705 5.74372H10.3946C10.4618 5.74372 10.4895 5.83536 10.4618 5.88136Z" fill="white"/>
<path d="M14.3123 14.8946C13.129 14.9131 11.8897 14.4259 11.2667 13.3466C10.9625 12.8284 10.8105 12.1794 10.8105 11.3994C10.8055 10.7679 10.9628 10.1461 11.2667 9.59679C12.0508 8.19521 13.6303 7.67007 15.1307 7.80793V5.09704C15.1307 5.03296 15.1575 5.00072 15.2112 5.00072H16.9017C16.9479 4.99395 16.9888 5.03588 16.9822 5.08327V13.2159C16.9822 13.5514 17.0155 13.8857 17.0359 14.2204C17.0392 14.2775 17.0061 14.3341 16.9553 14.358C16.1201 14.7153 15.2163 14.8905 14.3123 14.8946ZM15.1307 13.1883V9.43164C13.9053 9.09121 12.7155 10.0246 12.7157 11.3169C12.6866 12.6529 13.8383 13.576 15.1307 13.1883Z" fill="white"/>
</svg>
