<svg width="20" height="20" viewBox="0 0 20 20" fill="none" xmlns="http://www.w3.org/2000/svg">
<rect width="20" height="20" rx="3" fill="#A6A999"/>
<path d="M10.4621 5.88185L7.96657 10.1064L10.6364 14.5923C10.6919 14.6941 10.6364 14.7166 10.556 14.7166H8.65085C8.51664 14.7166 8.42271 14.7117 8.36907 14.6199C8.18999 14.2621 8.01114 13.9066 7.83235 13.5534C7.65335 13.2004 7.46328 12.8403 7.26221 12.4732C7.06092 12.1064 6.86192 11.7349 6.66514 11.3586C6.48614 11.7256 6.28707 12.0926 6.09492 12.4595C5.90249 12.8265 5.71242 13.1911 5.52472 13.5534C5.33689 13.9159 5.14459 14.276 4.94782 14.6336C4.91197 14.7162 4.84927 14.7247 4.75994 14.7247H2.92189C2.84967 14.7247 2.84096 14.6704 2.88165 14.6061L5.47104 10.244L2.94871 5.86807C2.90289 5.80564 2.94232 5.73914 3.01581 5.74421H4.90753C4.98944 5.73964 5.06184 5.77049 5.10879 5.84056C5.26979 6.20756 5.44868 6.57456 5.64544 6.94142C5.84207 7.30842 6.04114 7.67085 6.2425 8.02849C6.44378 8.38628 6.64278 8.74864 6.81271 9.11564C6.99149 8.73956 7.17264 8.37264 7.35607 8.01478C7.53935 7.65699 7.72714 7.29692 7.91957 6.93456C8.11185 6.57228 8.29742 6.21221 8.47635 5.85435C8.50014 5.77585 8.55699 5.73606 8.63735 5.74421H10.3949C10.4621 5.74421 10.4898 5.83585 10.4621 5.88185Z" fill="#2D312A"/>
<path d="M14.3124 14.8946C13.1292 14.9131 11.8898 14.4259 11.2668 13.3466C10.9627 12.8284 10.8106 12.1794 10.8107 11.3994C10.8056 10.7679 10.963 10.1461 11.2668 9.59679C12.0509 8.19521 13.6305 7.67007 15.1308 7.80793V5.09704C15.1308 5.03296 15.1577 5.00072 15.2113 5.00072H16.9018C16.948 4.99395 16.9889 5.03588 16.9823 5.08327V13.2159C16.9823 13.5514 17.0156 13.8857 17.036 14.2204C17.0393 14.2775 17.0062 14.3341 16.9555 14.358C16.1202 14.7153 15.2165 14.8905 14.3124 14.8946ZM15.1308 13.1883V9.43164C13.9054 9.09121 12.7157 10.0246 12.7158 11.3169C12.6867 12.6529 13.8385 13.576 15.1308 13.1883Z" fill="#2D312A"/>
</svg>
