<svg width="20" height="20" viewBox="0 0 20 20" fill="none" xmlns="http://www.w3.org/2000/svg">
<rect width="20" height="20" rx="3" fill="#2D312A"/>
<path d="M10.4616 5.88185L7.96608 10.1064L10.6359 14.5923C10.6914 14.6941 10.6359 14.7166 10.5555 14.7166H8.65036C8.51615 14.7166 8.42222 14.7117 8.36858 14.6199C8.18951 14.2621 8.01065 13.9066 7.83186 13.5534C7.65286 13.2004 7.46279 12.8403 7.26172 12.4732C7.06044 12.1064 6.86144 11.7349 6.66465 11.3586C6.48565 11.7256 6.28658 12.0926 6.09444 12.4595C5.90201 12.8265 5.71194 13.1911 5.52423 13.5534C5.33641 13.9159 5.1441 14.276 4.94733 14.6336C4.91148 14.7162 4.84878 14.7247 4.75946 14.7247H2.92141C2.84918 14.7247 2.84047 14.6704 2.88116 14.6061L5.47056 10.244L2.94822 5.86807C2.90241 5.80564 2.94183 5.73914 3.01532 5.74421H4.90704C4.98896 5.73964 5.06135 5.77049 5.1083 5.84056C5.26931 6.20756 5.44819 6.57456 5.64496 6.94142C5.84158 7.30842 6.04065 7.67085 6.24201 8.02849C6.44329 8.38628 6.64229 8.74864 6.81222 9.11564C6.99101 8.73956 7.17215 8.37264 7.35558 8.01478C7.53886 7.65699 7.72665 7.29692 7.91908 6.93456C8.11136 6.57228 8.29694 6.21221 8.47586 5.85435C8.49965 5.77585 8.55651 5.73606 8.63686 5.74421H10.3944C10.4616 5.74421 10.4893 5.83585 10.4616 5.88185Z" fill="#A6A999"/>
<path d="M14.3119 14.8946C13.1287 14.9131 11.8893 14.4259 11.2663 13.3466C10.9622 12.8284 10.8101 12.1794 10.8102 11.3994C10.8051 10.7679 10.9625 10.1461 11.2663 9.59679C12.0504 8.19521 13.63 7.67007 15.1303 7.80793V5.09704C15.1303 5.03296 15.1572 5.00072 15.2108 5.00072H16.9013C16.9475 4.99395 16.9884 5.03588 16.9818 5.08327V13.2159C16.9818 13.5514 17.0151 13.8857 17.0355 14.2204C17.0388 14.2775 17.0057 14.3341 16.955 14.358C16.1197 14.7153 15.216 14.8905 14.3119 14.8946ZM15.1303 13.1883V9.43164C13.9049 9.09121 12.7152 10.0246 12.7153 11.3169C12.6862 12.6529 13.838 13.576 15.1303 13.1883Z" fill="#A6A999"/>
</svg>
