<svg width="20" height="20" viewBox="0 0 20 20" fill="none" xmlns="http://www.w3.org/2000/svg">
<rect width="20" height="20" rx="3" fill="#2D312A"/>
<g clip-path="url(#clip0_1072_4598)">
<path d="M4.46646 12.4177L3.6295 12.7235L3.58496 15.2131L6.48209 14.1548C5.48757 13.8217 4.76229 13.2347 4.46646 12.4177Z" fill="#6A6D62"/>
<path d="M4.90444 9.78467L2 10.8457L3.62938 12.7243L4.46635 12.4185C4.17118 11.6042 4.35333 10.6848 4.90444 9.78467Z" fill="#888B7D"/>
<path d="M9.79155 6.19151C6.09336 7.54235 3.70878 10.3305 4.46664 12.4179L17.8587 7.52573C17.1008 5.43831 13.4897 4.84067 9.79155 6.19151Z" fill="#4B4F46"/>
<path d="M12.533 13.7527C16.2312 12.4019 18.6197 9.62642 17.8579 7.52637L4.46582 12.4178C5.22766 14.5186 8.83477 15.1036 12.533 13.7527Z" fill="#A6A999"/>
<path d="M17.8582 7.52563L4.4668 12.4178C4.72872 13.1411 5.72922 13.4974 7.13191 13.4974C8.50004 13.4974 10.2511 13.159 12.0766 12.4922C15.7748 11.1414 18.3761 8.95359 17.8582 7.52563Z" fill="#888B7D"/>
<path d="M15.1924 6.44678C13.8249 6.44678 12.0732 6.78515 10.2477 7.45193C6.54951 8.80277 3.94822 10.9899 4.46608 12.4179L17.8581 7.52572C17.5955 6.80244 16.5957 6.44678 15.1924 6.44678Z" fill="#6A6D62"/>
<path d="M14.4525 15.3453C14.0583 15.3453 13.4773 14.9897 12.7247 14.2876C11.8346 13.4573 10.8155 12.2408 9.85355 10.8627C8.89227 9.48458 8.10251 8.10715 7.62918 6.983C7.11398 5.75847 7.04019 5.00594 7.41047 4.74534C7.49623 4.68684 7.59794 4.65693 7.70165 4.65959C8.00279 4.65959 8.59046 4.88362 9.67605 5.95259L9.69998 5.97586L9.69666 6.0091C9.68935 6.08621 9.6827 6.16333 9.67672 6.23978L9.66475 6.39068L9.55838 6.28365C8.38837 5.10499 7.87382 4.97802 7.7063 4.97802C7.65843 4.97802 7.62054 4.98733 7.59329 5.0066C7.43241 5.11962 7.42177 5.67272 7.92169 6.85935C8.38637 7.96289 9.16483 9.31972 10.1135 10.6799C11.0628 12.0407 12.0666 13.2386 12.9415 14.0543C13.8841 14.9338 14.3089 15.0289 14.4479 15.0289C14.4957 15.0289 14.5343 15.0189 14.5635 14.9983C14.7331 14.8793 14.7331 14.287 14.176 13.0093L14.15 12.9508L14.2059 12.9202C14.2617 12.8896 14.3162 12.8597 14.3668 12.8304L14.4339 12.7925L14.4651 12.863C14.86 13.7684 15.2296 14.9192 14.745 15.2596C14.6593 15.3181 14.5569 15.348 14.4525 15.3453Z" fill="#A6A999"/>
<path d="M12.6224 13.714L12.6171 13.7832C12.5233 14.9399 12.2774 16.3306 11.6352 16.3871C11.6219 16.3885 11.6086 16.3885 11.596 16.3885C11.1599 16.3885 10.747 15.7636 10.3701 14.5317C10.0125 13.3657 9.73525 11.8008 9.58966 10.1249C9.44341 8.44896 9.4454 6.85946 9.59564 5.64889C9.75918 4.32996 10.0703 3.64125 10.521 3.60136C10.5343 3.60003 10.5483 3.59937 10.5616 3.59937C10.878 3.59937 11.3547 3.95768 11.8426 5.62629L11.5242 5.68745C11.3613 5.13036 11.1838 4.67698 11.0076 4.36453C10.8448 4.07668 10.6859 3.9178 10.5616 3.9178C10.5576 3.9178 10.5536 3.9178 10.5489 3.91846C10.3535 3.93575 10.069 4.40907 9.91075 5.68811C9.76317 6.87675 9.76117 8.44297 9.90543 10.097C10.0497 11.7516 10.3222 13.2932 10.6733 14.438C10.8301 14.9505 11.0023 15.3733 11.1718 15.6599C11.3274 15.9244 11.4783 16.07 11.596 16.07C11.6 16.07 11.604 16.07 11.6079 16.0694C11.7947 16.0534 12.1471 15.5601 12.2953 13.8257L12.6224 13.714Z" fill="#A6A999"/>
</g>
<defs>
<clipPath id="clip0_1072_4598">
<rect width="16" height="12.7891" fill="white" transform="translate(2 3.6001)"/>
</clipPath>
</defs>
</svg>
