<svg width="20" height="20" viewBox="0 0 20 20" fill="none" xmlns="http://www.w3.org/2000/svg">
<g clip-path="url(#clip0_481_892)">
<path d="M20 0H0V20H20V0Z" fill="#111111"/>
<path fill-rule="evenodd" clip-rule="evenodd" d="M8.13603 8.42031C7.24953 8.42031 6.53088 9.13871 6.53088 10.0249C6.53088 10.9111 7.24953 11.6295 8.13603 11.6295H9.78456V10.0249V8.42031H8.13603ZM12.1706 7.6397L12.214 7.6397C13.1005 7.6397 13.8191 6.9213 13.8191 6.03511C13.8191 5.14891 13.1005 4.43051 12.214 4.43051H10.5654V7.6397L12.1706 7.6397ZM13.5224 8.03C14.1715 7.60373 14.6 6.86944 14.6 6.03511C14.6 4.71779 13.5317 3.6499 12.214 3.6499H10.5654H10.175H9.78456H8.13603C6.81826 3.6499 5.75 4.71779 5.75 6.03511C5.75 6.86944 6.17853 7.60373 6.82758 8.03C6.17853 8.45628 5.75 9.19056 5.75 10.0249C5.75 10.8592 6.17853 11.5935 6.82758 12.0198C6.17853 12.4461 5.75 13.1804 5.75 14.0147C5.75 15.3347 6.83179 16.3999 8.14682 16.3999C9.47382 16.3999 10.5654 15.325 10.5654 13.993V12.4101V12.0198V11.7897C10.9893 12.1752 11.5525 12.4101 12.1706 12.4101H12.214C13.5317 12.4101 14.6 11.3422 14.6 10.0249C14.6 9.19056 14.1715 8.45628 13.5224 8.03ZM12.214 8.42031L12.1706 8.42031C11.2841 8.42031 10.5654 9.13871 10.5654 10.0249C10.5654 10.9111 11.2841 11.6295 12.1706 11.6295H12.214C13.1005 11.6295 13.8191 10.9111 13.8191 10.0249C13.8191 9.13871 13.1005 8.42031 12.214 8.42031ZM6.53088 14.0147C6.53088 13.1285 7.24953 12.4101 8.13603 12.4101H9.78456V13.993C9.78456 14.8884 9.04804 15.6193 8.14682 15.6193C7.25757 15.6193 6.53088 14.8982 6.53088 14.0147ZM9.78456 7.6397H8.13603C7.24953 7.6397 6.53088 6.9213 6.53088 6.03511C6.53088 5.14891 7.24953 4.43051 8.13603 4.43051H9.78456V7.6397Z" fill="white"/>
</g>
<defs>
<clipPath id="clip0_481_892">
<rect width="20" height="20" rx="3" fill="white"/>
</clipPath>
</defs>
</svg>
