<svg width="1322" height="62" viewBox="0 0 1322 62" fill="none" xmlns="http://www.w3.org/2000/svg">
<g opacity="0.08" clip-path="url(#clip0_395_1208)" filter="url(#filter0_d_395_1208)">
<path d="M4 29.7712V0.950134H19.3592V28.1085C19.3592 38.085 25.5989 41.9648 35.8383 41.9648C46.0778 41.9648 52.3174 38.085 52.3174 28.1085V0.950134H66.0767V29.7712C66.0767 46.2405 54.3973 54 35.1183 54C15.8394 54 4 46.2405 4 29.7712Z" fill="#BDBDB0"/>
<path d="M75.0361 0.950134H90.3961V53.0498H75.0361V0.950134Z" fill="#BDBDB0"/>
<path d="M99.3545 29.7712V0.950134H114.714V28.1085C114.714 38.085 120.953 41.9648 131.193 41.9648C141.432 41.9648 147.672 38.085 147.672 28.1085V0.950134H161.431V29.7712C161.431 46.2405 149.752 54 130.473 54C111.194 54 99.3545 46.2405 99.3545 29.7712Z" fill="#BDBDB0"/>
<path d="M191.83 25.9707L167.831 0.950134H187.67L203.349 18.132L218.149 0.950134H235.908L211.909 26.5249L236.708 53.0498H216.869L200.709 34.6012L185.35 53.0498H167.031L191.83 25.9707Z" fill="#BDBDB0"/>
<path d="M266.866 0.950134H293.665C318.383 0.950134 326.703 12.2727 326.703 27C326.703 43.7067 318.223 53.0498 295.985 53.0498H266.866V0.950134ZM295.505 41.8064C306.864 41.8064 311.344 36.5806 311.344 27C311.344 18.7654 306.864 12.1935 294.465 12.1935H282.225V41.8064H295.505Z" fill="#BDBDB0"/>
<path d="M334.062 0.950134H383.82V12.1935H349.422V22.4076H375.82V31.2756H349.422V41.8064H384.62V53.0498H334.062V0.950134Z" fill="#BDBDB0"/>
<path d="M390.939 35.5513H404.698C404.698 39.9853 407.898 43.5484 421.097 43.5484C435.017 43.5484 437.337 40.7771 437.337 37.2141C437.337 35.0762 435.977 33.8094 433.177 33.176C429.897 32.4633 421.817 32.1466 415.978 31.8299C409.018 31.434 401.339 30.563 397.019 28.346C393.179 26.3666 390.619 22.6452 390.619 17.5777C390.619 7.91789 400.059 0 420.938 0C445.976 0 450.296 8.55132 450.296 17.9736H436.537C436.537 13.2229 431.817 10.4516 420.938 10.4516C410.058 10.4516 405.978 12.7478 405.978 16.4692C405.978 18.4487 407.098 19.6364 409.338 20.349C412.218 21.2199 420.138 21.5367 426.057 21.9326C433.737 22.4076 440.296 23.0411 444.776 24.8622C449.816 26.9208 452.696 31.0381 452.696 36.0264C452.696 44.261 448.216 54 421.097 54C393.979 54 390.939 42.5191 390.939 35.5513Z" fill="#BDBDB0"/>
<path d="M460.855 0.950134H476.215V53.0498H460.855V0.950134Z" fill="#BDBDB0"/>
<path d="M483.975 27.7126C483.975 12.6686 494.294 0 517.173 0C540.052 0 547.171 10.0557 547.171 19.7947C547.171 20.0323 547.171 20.349 547.091 20.9032H533.412V20.349C533.412 16.3108 529.332 11.2434 517.653 11.2434C505.973 11.2434 499.734 18.4487 499.734 27.7918C499.734 36.5806 504.534 43.9443 517.413 43.9443C528.372 43.9443 532.532 38.1642 532.532 34.4428V34.2053H515.573V26.129H547.891V53.0498H536.052C536.132 50.7537 536.212 46.3196 536.212 42.5191H536.052C534.292 49.2493 527.972 54 514.853 54C492.374 54 483.975 41.4106 483.975 27.7126Z" fill="#BDBDB0"/>
<path d="M556.051 0.950134H577.49L605.568 32.305H605.648V0.950134H620.527V53.0498H605.328L571.01 14.7273H570.93V53.0498H556.051V0.950134Z" fill="#BDBDB0"/>
<path d="M629.637 0.950134H679.394V12.1935H644.996V22.4076H671.395V31.2756H644.996V41.8064H680.194V53.0498H629.637V0.950134Z" fill="#BDBDB0"/>
<path d="M687.554 0.950134H720.672C740.191 0.950134 746.271 7.04691 746.271 16.39C746.271 21.6158 744.031 26.6833 736.751 28.8211V28.9795C745.071 30.8798 745.951 36.6598 745.951 42.1232V53.0498H730.591V42.1232C730.591 36.739 728.511 34.2844 721.952 34.2844H702.913V53.0498H687.554V0.950134ZM721.392 25.4164C728.991 25.4164 731.711 22.6451 731.711 18.607C731.711 14.8856 728.911 12.1935 720.032 12.1935H702.913V25.4164H721.392Z" fill="#BDBDB0"/>
<path d="M779.229 0.950134H810.907C828.906 0.950134 836.825 7.20527 836.825 19.6364C836.825 32.0674 829.066 37.6891 810.507 37.6891H794.588V53.0498H779.229V0.950134ZM810.187 28.0293C818.426 28.0293 822.266 25.4956 822.266 20.1114C822.266 14.7273 818.826 12.1935 810.267 12.1935H794.588V28.0293H810.187Z" fill="#BDBDB0"/>
<path d="M841.625 26.7625C841.625 12.3519 852.424 0 876.183 0C899.942 0 910.741 12.3519 910.741 26.7625C910.741 41.173 900.742 54 876.183 54C851.624 54 841.625 42.3607 841.625 26.7625ZM894.582 26.8416C894.582 18.3695 888.662 11.2434 876.183 11.2434C863.704 11.2434 857.784 18.3695 857.784 26.8416C857.784 36.1847 863.624 42.7566 876.183 42.7566C888.742 42.7566 894.582 35.7889 894.582 26.8416Z" fill="#BDBDB0"/>
<path d="M918.102 0.950134H951.22C970.739 0.950134 976.818 7.04691 976.818 16.39C976.818 21.6158 974.579 26.6833 967.299 28.8211V28.9795C975.618 30.8798 976.498 36.6598 976.498 42.1232V53.0498H961.139V42.1232C961.139 36.739 959.059 34.2844 952.5 34.2844H933.461V53.0498H918.102V0.950134ZM951.94 25.4164C959.539 25.4164 962.259 22.6451 962.259 18.607C962.259 14.8856 959.459 12.1935 950.58 12.1935H933.461V25.4164H951.94Z" fill="#BDBDB0"/>
<path d="M1002.34 12.1935H981.618V0.950134H1038.42V12.1935H1017.7V53.0498H1002.34V12.1935Z" fill="#BDBDB0"/>
<path d="M1044.97 0.950134H1093.37V12.1935H1060.33V23.7537H1087.77V33.4135H1060.33V53.0498H1044.97V0.950134Z" fill="#BDBDB0"/>
<path d="M1095.77 26.7625C1095.77 12.3519 1106.57 0 1130.33 0C1154.09 0 1164.89 12.3519 1164.89 26.7625C1164.89 41.173 1154.89 54 1130.33 54C1105.77 54 1095.77 42.3607 1095.77 26.7625ZM1148.73 26.8416C1148.73 18.3695 1142.81 11.2434 1130.33 11.2434C1117.85 11.2434 1111.93 18.3695 1111.93 26.8416C1111.93 36.1847 1117.77 42.7566 1130.33 42.7566C1142.89 42.7566 1148.73 35.7889 1148.73 26.8416Z" fill="#BDBDB0"/>
<path d="M1172.25 0.950134H1187.61V41.0146H1218.81V53.0498H1172.25V0.950134Z" fill="#BDBDB0"/>
<path d="M1225.76 0.950134H1241.12V53.0498H1225.76V0.950134Z" fill="#BDBDB0"/>
<path d="M1248.88 26.7625C1248.88 12.3519 1259.68 0 1283.44 0C1307.2 0 1318 12.3519 1318 26.7625C1318 41.173 1308 54 1283.44 54C1258.88 54 1248.88 42.3607 1248.88 26.7625ZM1301.84 26.8416C1301.84 18.3695 1295.92 11.2434 1283.44 11.2434C1270.96 11.2434 1265.04 18.3695 1265.04 26.8416C1265.04 36.1847 1270.88 42.7566 1283.44 42.7566C1296 42.7566 1301.84 35.7889 1301.84 26.8416Z" fill="#BDBDB0"/>
</g>
<defs>
<filter id="filter0_d_395_1208" x="0" y="0" width="1322" height="62" filterUnits="userSpaceOnUse" color-interpolation-filters="sRGB">
<feFlood flood-opacity="0" result="BackgroundImageFix"/>
<feColorMatrix in="SourceAlpha" type="matrix" values="0 0 0 0 0 0 0 0 0 0 0 0 0 0 0 0 0 0 127 0" result="hardAlpha"/>
<feOffset dy="4"/>
<feGaussianBlur stdDeviation="2"/>
<feComposite in2="hardAlpha" operator="out"/>
<feColorMatrix type="matrix" values="0 0 0 0 0 0 0 0 0 0 0 0 0 0 0 0 0 0 0.25 0"/>
<feBlend mode="normal" in2="BackgroundImageFix" result="effect1_dropShadow_395_1208"/>
<feBlend mode="normal" in="SourceGraphic" in2="effect1_dropShadow_395_1208" result="shape"/>
</filter>
<clipPath id="clip0_395_1208">
<rect width="1314" height="54" fill="white" transform="translate(4)"/>
</clipPath>
</defs>
</svg>
