<svg width="908" height="180" viewBox="0 0 908 180" fill="none" xmlns="http://www.w3.org/2000/svg">
<g clip-path="url(#clip0_553_2590)">
<path d="M0 180V0H84.9996V180H0ZM97.8822 180V88.5857C99.4359 88.5857 101.249 88.3286 102.867 88.3286C152.65 88.3286 192.592 129.536 192.592 180H97.947H97.8822ZM131.804 4.43571C147.989 4.43571 161.001 17.3571 161.001 33.4286C161.001 49.5 147.989 62.1643 131.804 62.1643C115.62 62.1643 102.867 49.5 102.867 33.4286C102.867 17.3571 115.62 4.43571 131.804 4.43571Z" fill="#2D312A"/>
<path d="M205.863 180V0H290.863V180H205.863Z" fill="#2D312A"/>
<path d="M401.822 0C454.259 0 496.467 42.2357 496.467 94.3071V180H401.822V0ZM509.479 15.5571C561.916 15.5571 604.125 57.7929 604.125 109.864V180.064H509.479V15.5571ZM303.81 0V180H388.875V12.8571C388.875 5.78571 394.636 0 401.822 0H303.81Z" fill="#2D312A"/>
<path d="M617.072 180V0H702.072V180H617.072ZM715.343 180V88.5857C716.897 88.5857 718.709 88.3286 720.263 88.3286C770.11 88.3286 809.988 129.536 809.988 180H715.343ZM749.2 4.43571C765.385 4.43571 778.397 17.3571 778.397 33.4286C778.397 49.5 765.385 62.1643 749.2 62.1643C733.016 62.1643 720.263 49.5 720.263 33.4286C720.263 17.3571 733.016 4.43571 749.2 4.43571Z" fill="#2D312A"/>
<path d="M822.936 180V0H907.935V180H822.936Z" fill="#2D312A"/>
</g>
<defs>
<clipPath id="clip0_553_2590">
<rect width="908" height="180" fill="white"/>
</clipPath>
</defs>
</svg>
