<svg width="201" height="40" viewBox="0 0 201 40" fill="none" xmlns="http://www.w3.org/2000/svg">
<g clip-path="url(#clip0_390_849)">
<path d="M0 40V0H18.7571V40H0ZM21.6 40V19.6857C21.9429 19.6857 22.3429 19.6286 22.7 19.6286C33.6857 19.6286 42.5 28.7857 42.5 40H21.6143H21.6ZM29.0857 0.985714C32.6571 0.985714 35.5286 3.85714 35.5286 7.42857C35.5286 11 32.6571 13.8143 29.0857 13.8143C25.5143 13.8143 22.7 11 22.7 7.42857C22.7 3.85714 25.5143 0.985714 29.0857 0.985714Z" fill="#BDBDB0"/>
<path d="M45.4286 40V0H64.1857V40H45.4286Z" fill="#BDBDB0"/>
<path d="M88.6714 0C100.243 0 109.557 9.38571 109.557 20.9571V40H88.6714V0ZM112.429 3.45714C124 3.45714 133.314 12.8429 133.314 24.4143V40.0143H112.429V3.45714ZM67.0429 0V40H85.8143V2.85714C85.8143 1.28571 87.0857 0 88.6714 0H67.0429Z" fill="#BDBDB0"/>
<path d="M136.171 40V0H154.929V40H136.171ZM157.857 40V19.6857C158.2 19.6857 158.6 19.6286 158.943 19.6286C169.943 19.6286 178.743 28.7857 178.743 40H157.857ZM165.329 0.985714C168.9 0.985714 171.771 3.85714 171.771 7.42857C171.771 11 168.9 13.8143 165.329 13.8143C161.757 13.8143 158.943 11 158.943 7.42857C158.943 3.85714 161.757 0.985714 165.329 0.985714Z" fill="#BDBDB0"/>
<path d="M181.6 40V0H200.357V40H181.6Z" fill="#BDBDB0"/>
</g>
<defs>
<clipPath id="clip0_390_849">
<rect width="200.371" height="40" fill="white"/>
</clipPath>
</defs>
</svg>
