<svg width="139" height="28" viewBox="0 0 139 28" fill="none" xmlns="http://www.w3.org/2000/svg">
<g clip-path="url(#clip0_356_619)">
<path d="M0 28V0H13.13V28H0ZM15.12 28V13.78C15.36 13.78 15.64 13.74 15.89 13.74C23.58 13.74 29.75 20.15 29.75 28H15.13H15.12ZM20.36 0.69C22.86 0.69 24.87 2.7 24.87 5.2C24.87 7.7 22.86 9.67 20.36 9.67C17.86 9.67 15.89 7.7 15.89 5.2C15.89 2.7 17.86 0.69 20.36 0.69Z" fill="#2D312A"/>
<path d="M31.8 28V0H44.93V28H31.8Z" fill="#2D312A"/>
<path d="M60.07 0C68.17 0 74.69 6.57 74.69 14.67V28H60.07V0ZM76.7 2.42C84.8 2.42 91.32 8.99 91.32 17.09V28.01H76.7V2.42ZM46.93 0V28H58.07V2C58.07 0.9 58.96 0 60.07 0H46.93Z" fill="#2D312A"/>
<path d="M93.32 28V0H106.45V28H93.32ZM108.5 28V13.78C108.74 13.78 109.02 13.74 109.26 13.74C116.96 13.74 123.12 20.15 123.12 28H108.5ZM113.73 0.69C116.23 0.69 118.24 2.7 118.24 5.2C118.24 7.7 116.23 9.67 113.73 9.67C111.23 9.67 109.26 7.7 109.26 5.2C109.26 2.7 111.23 0.69 113.73 0.69Z" fill="#2D312A"/>
<path d="M125.12 28V0H138.25V28H125.12Z" fill="#2D312A"/>
</g>
<defs>
<clipPath id="clip0_356_619">
<rect width="138.26" height="28" fill="white"/>
</clipPath>
</defs>
</svg>
