<svg width="904" height="180" viewBox="0 0 904 180" fill="none" xmlns="http://www.w3.org/2000/svg">
<g clip-path="url(#clip0_372_215)">
<path d="M0 180V0H84.6251V180H0ZM97.451 180V88.5857C98.9979 88.5857 100.803 88.3286 102.414 88.3286C151.977 88.3286 191.744 129.536 191.744 180H97.5155H97.451ZM131.224 4.43571C147.337 4.43571 160.291 17.3571 160.291 33.4286C160.291 49.5 147.337 62.1643 131.224 62.1643C115.111 62.1643 102.414 49.5 102.414 33.4286C102.414 17.3571 115.111 4.43571 131.224 4.43571Z" fill="#2D312A"/>
<path d="M204.957 180V0H289.582V180H204.957Z" fill="#2D312A"/>
<path d="M400.052 0C452.258 0 494.28 42.2357 494.28 94.3071V180H400.052V0ZM507.235 15.5571C559.441 15.5571 601.464 57.7929 601.464 109.864V180.064H507.235V15.5571ZM302.472 0V180H387.162V12.8571C387.162 5.78571 392.898 0 400.052 0H302.472Z" fill="#2D312A"/>
<path d="M614.354 180V0H698.979V180H614.354ZM712.192 180V88.5857C713.739 88.5857 715.543 88.3286 717.09 88.3286C766.718 88.3286 806.42 129.536 806.42 180H712.192ZM745.9 4.43571C762.013 4.43571 774.968 17.3571 774.968 33.4286C774.968 49.5 762.013 62.1643 745.9 62.1643C729.787 62.1643 717.09 49.5 717.09 33.4286C717.09 17.3571 729.787 4.43571 745.9 4.43571Z" fill="#2D312A"/>
<path d="M819.311 180V0H903.936V180H819.311Z" fill="#2D312A"/>
</g>
<defs>
<clipPath id="clip0_372_215">
<rect width="904" height="180" fill="white"/>
</clipPath>
</defs>
</svg>
