<svg width="192" height="192" viewBox="0 0 192 192" fill="none" xmlns="http://www.w3.org/2000/svg">
<path d="M0 0H192V192H0V0Z" fill="#A6A999"/>
<g clip-path="url(#clip0_1087_4502)">
<path d="M44 148.717V43.27H93.4472V148.717H44ZM100.941 148.717V95.1651C101.845 95.1651 102.9 95.0145 103.841 95.0145C132.802 95.0145 156.038 119.154 156.038 148.717H100.979H100.941ZM120.675 45.8685C130.09 45.8685 137.66 53.4381 137.66 62.8531C137.66 72.268 130.09 79.687 120.675 79.687C111.26 79.687 103.841 72.268 103.841 62.8531C103.841 53.4381 111.26 45.8685 120.675 45.8685Z" fill="#2D312A"/>
</g>
<defs>
<clipPath id="clip0_1087_4502">
<rect width="112" height="105.447" fill="white" transform="translate(44 43.27)"/>
</clipPath>
</defs>
</svg>
