<svg width="16" height="16" viewBox="0 0 16 16" fill="none" xmlns="http://www.w3.org/2000/svg">
<path d="M14.807 12.02C14.807 13.4933 13.6136 14.6867 12.1403 14.6867C6.24697 14.6867 1.47363 9.91333 1.47363 4.02C1.47363 2.54667 2.66697 1.35333 4.1403 1.35333C4.29363 1.35333 4.4403 1.36667 4.5803 1.39333C4.73363 1.42 4.8803 1.45333 5.02697 1.50667L6.02697 5.90667L4.58697 6.64667C5.38697 8.95333 7.21363 10.7733 9.51363 11.5733L10.2603 10.1333L14.6603 11.1333C14.7136 11.2733 14.747 11.4267 14.7736 11.58C14.8003 11.7267 14.8136 11.8733 14.8136 12.02H14.807Z" fill="#E6E6E6"/>
</svg>
